<svg xmlns="http://www.w3.org/2000/svg" xmlns:xlink="http://www.w3.org/1999/xlink" width="56" height="56" viewBox="0 0 56 56">
  <defs>
    <clipPath id="clip-Artboard_4">
      <rect width="56" height="56"/>
    </clipPath>
  </defs>
  <g id="Artboard_4" data-name="Artboard – 4" clip-path="url(#clip-Artboard_4)">
    <line id="Line_31" data-name="Line 31" x2="28" transform="translate(0 28)" fill="none" stroke="#ffbb02" stroke-width="1"/>
    <line id="Line_32" data-name="Line 32" x2="28" transform="translate(28 28)" fill="none" stroke="#ffbb02" stroke-width="1"/>
    <line id="Line_33" data-name="Line 33" x2="28" transform="translate(48 8.5) rotate(135)" fill="none" stroke="#ffbb02" stroke-width="1"/>
    <line id="Line_30" data-name="Line 30" x2="28" transform="translate(8.201 8.5) rotate(45)" fill="none" stroke="#ffbb02" stroke-width="1"/>
    <line id="Line_34" data-name="Line 34" x2="28" transform="translate(8.201 48.098) rotate(-45)" fill="none" stroke="#ffbb02" stroke-width="1"/>
    <line id="Line_35" data-name="Line 35" x2="28" transform="translate(48 48.098) rotate(-135)" fill="none" stroke="#ffbb02" stroke-width="1"/>
    <line id="Line_36" data-name="Line 36" x2="28" transform="translate(28.5) rotate(90)" fill="none" stroke="#ffbb02" stroke-width="1"/>
    <line id="Line_37" data-name="Line 37" x2="28" transform="translate(28.5 28) rotate(90)" fill="none" stroke="#ffbb02" stroke-width="1"/>
    <circle id="Ellipse_8" data-name="Ellipse 8" cx="17" cy="17" r="17" transform="translate(11.5 10.5)"/>
    <circle id="Ellipse_9" data-name="Ellipse 9" cx="8.5" cy="8.5" r="8.5" transform="translate(18.5 20.5)" fill="#ffbb02"/>
    <path id="Path_17" data-name="Path 17" d="M8.5,42.482l2.871,2.871L8.5,48.223" transform="translate(2.629 -17.352)" fill="none" stroke="#ffbb02" stroke-width="1"/>
    <path id="Path_23" data-name="Path 23" d="M8.5,42.482l2.871,2.871L8.5,48.223" transform="translate(54.371 73.352) rotate(180)" fill="none" stroke="#ffbb02" stroke-width="1"/>
    <path id="Path_18" data-name="Path 18" d="M8.5,42.482l2.871,2.871L8.5,48.223" transform="translate(73.852 2.129) rotate(90)" fill="none" stroke="#ffbb02" stroke-width="1"/>
    <path id="Path_22" data-name="Path 22" d="M8.5,42.482l2.871,2.871L8.5,48.223" transform="translate(-16.852 53.871) rotate(-90)" fill="none" stroke="#ffbb02" stroke-width="1"/>
    <path id="Path_16" data-name="Path 16" d="M8.5,42.482l2.871,2.871L8.5,48.223" transform="translate(42.276 -22.362) rotate(45)" fill="none" stroke="#ffbb02" stroke-width="1"/>
    <path id="Path_21" data-name="Path 21" d="M8.5,42.482l2.871,2.871L8.5,48.223" transform="translate(14.724 78.362) rotate(-135)" fill="none" stroke="#ffbb02" stroke-width="1"/>
    <path id="Path_19" data-name="Path 19" d="M8.5,42.482l2.871,2.871L8.5,48.223" transform="translate(78.862 41.776) rotate(135)" fill="none" stroke="#ffbb02" stroke-width="1"/>
    <path id="Path_20" data-name="Path 20" d="M8.5,42.482l2.871,2.871L8.5,48.223" transform="translate(-21.862 14.224) rotate(-45)" fill="none" stroke="#ffbb02" stroke-width="1"/>
  </g>
</svg>
